%TF.GenerationSoftware,KiCad,Pcbnew,8.0.2*%
%TF.CreationDate,2024-10-03T19:13:02-03:00*%
%TF.ProjectId,ESCX,45534358-2e6b-4696-9361-645f70636258,rev?*%
%TF.SameCoordinates,Original*%
%TF.FileFunction,Soldermask,Bot*%
%TF.FilePolarity,Negative*%
%FSLAX46Y46*%
G04 Gerber Fmt 4.6, Leading zero omitted, Abs format (unit mm)*
G04 Created by KiCad (PCBNEW 8.0.2) date 2024-10-03 19:13:02*
%MOMM*%
%LPD*%
G01*
G04 APERTURE LIST*
G04 Aperture macros list*
%AMRoundRect*
0 Rectangle with rounded corners*
0 $1 Rounding radius*
0 $2 $3 $4 $5 $6 $7 $8 $9 X,Y pos of 4 corners*
0 Add a 4 corners polygon primitive as box body*
4,1,4,$2,$3,$4,$5,$6,$7,$8,$9,$2,$3,0*
0 Add four circle primitives for the rounded corners*
1,1,$1+$1,$2,$3*
1,1,$1+$1,$4,$5*
1,1,$1+$1,$6,$7*
1,1,$1+$1,$8,$9*
0 Add four rect primitives between the rounded corners*
20,1,$1+$1,$2,$3,$4,$5,0*
20,1,$1+$1,$4,$5,$6,$7,0*
20,1,$1+$1,$6,$7,$8,$9,0*
20,1,$1+$1,$8,$9,$2,$3,0*%
G04 Aperture macros list end*
%ADD10R,2.600000X2.600000*%
%ADD11C,2.600000*%
%ADD12C,2.700000*%
%ADD13RoundRect,0.200100X-0.949900X0.949900X-0.949900X-0.949900X0.949900X-0.949900X0.949900X0.949900X0*%
%ADD14C,2.500000*%
%ADD15R,1.500000X1.500000*%
%ADD16C,1.600000*%
%ADD17R,6.350000X3.610000*%
%ADD18C,1.200000*%
%ADD19RoundRect,0.250000X0.600000X0.725000X-0.600000X0.725000X-0.600000X-0.725000X0.600000X-0.725000X0*%
%ADD20O,1.700000X1.950000*%
%ADD21C,0.650000*%
%ADD22O,2.100000X1.000000*%
%ADD23O,1.800000X1.000000*%
%ADD24R,1.700000X1.700000*%
%ADD25O,1.700000X1.700000*%
%ADD26R,1.600000X1.600000*%
%ADD27C,4.000000*%
G04 APERTURE END LIST*
D10*
%TO.C,J10*%
X188600000Y-87580000D03*
D11*
X188600000Y-82500000D03*
X188600000Y-77420000D03*
%TD*%
D12*
%TO.C,H1*%
X104000000Y-64000000D03*
%TD*%
D13*
%TO.C,J2*%
X193000000Y-117000000D03*
D14*
X195540000Y-114460000D03*
X190460000Y-114460000D03*
X195540000Y-119540000D03*
X190460000Y-119540000D03*
%TD*%
D10*
%TO.C,J11*%
X146545000Y-66000000D03*
D11*
X141465000Y-66000000D03*
%TD*%
D15*
%TO.C,SW1*%
X141000000Y-131200000D03*
D16*
X138460000Y-131200000D03*
X143540000Y-131200000D03*
%TD*%
D17*
%TO.C,U3*%
X125000000Y-85000000D03*
%TD*%
D12*
%TO.C,H2*%
X194000000Y-129000000D03*
%TD*%
D18*
%TO.C,J8*%
X167350000Y-128775000D03*
D19*
X165750000Y-130775000D03*
D20*
X163250000Y-130775000D03*
X160750000Y-130775000D03*
X158250000Y-130775000D03*
X155750000Y-130775000D03*
X153250000Y-130775000D03*
%TD*%
D12*
%TO.C,H4*%
X194000000Y-64000000D03*
%TD*%
D21*
%TO.C,J9*%
X106605000Y-115110000D03*
X106605000Y-120890000D03*
D22*
X107105000Y-113680000D03*
D23*
X102925000Y-113680000D03*
D22*
X107105000Y-122320000D03*
D23*
X102925000Y-122320000D03*
%TD*%
D12*
%TO.C,H3*%
X104000000Y-129000000D03*
%TD*%
D24*
%TO.C,J1*%
X111920000Y-130000000D03*
D25*
X114460000Y-130000000D03*
X117000000Y-130000000D03*
X119540000Y-130000000D03*
X122080000Y-130000000D03*
%TD*%
D26*
%TO.C,C52*%
X158000000Y-63500000D03*
D16*
X158000000Y-66000000D03*
%TD*%
D26*
%TO.C,C53*%
X131000000Y-63500000D03*
D16*
X131000000Y-66000000D03*
%TD*%
D27*
%TO.C,TP2*%
X194400000Y-82500000D03*
%TD*%
%TO.C,TP1*%
X194300000Y-87600000D03*
%TD*%
%TO.C,TP3*%
X194500000Y-77400000D03*
%TD*%
M02*
