%TF.GenerationSoftware,KiCad,Pcbnew,8.0.2*%
%TF.CreationDate,2024-10-03T19:13:02-03:00*%
%TF.ProjectId,ESCX,45534358-2e6b-4696-9361-645f70636258,rev?*%
%TF.SameCoordinates,Original*%
%TF.FileFunction,Paste,Top*%
%TF.FilePolarity,Positive*%
%FSLAX46Y46*%
G04 Gerber Fmt 4.6, Leading zero omitted, Abs format (unit mm)*
G04 Created by KiCad (PCBNEW 8.0.2) date 2024-10-03 19:13:02*
%MOMM*%
%LPD*%
G01*
G04 APERTURE LIST*
G04 Aperture macros list*
%AMRoundRect*
0 Rectangle with rounded corners*
0 $1 Rounding radius*
0 $2 $3 $4 $5 $6 $7 $8 $9 X,Y pos of 4 corners*
0 Add a 4 corners polygon primitive as box body*
4,1,4,$2,$3,$4,$5,$6,$7,$8,$9,$2,$3,0*
0 Add four circle primitives for the rounded corners*
1,1,$1+$1,$2,$3*
1,1,$1+$1,$4,$5*
1,1,$1+$1,$6,$7*
1,1,$1+$1,$8,$9*
0 Add four rect primitives between the rounded corners*
20,1,$1+$1,$2,$3,$4,$5,0*
20,1,$1+$1,$4,$5,$6,$7,0*
20,1,$1+$1,$6,$7,$8,$9,0*
20,1,$1+$1,$8,$9,$2,$3,0*%
G04 Aperture macros list end*
%ADD10RoundRect,0.237500X0.287500X0.237500X-0.287500X0.237500X-0.287500X-0.237500X0.287500X-0.237500X0*%
%ADD11RoundRect,0.225000X-0.225000X-0.250000X0.225000X-0.250000X0.225000X0.250000X-0.225000X0.250000X0*%
%ADD12RoundRect,0.250000X1.100000X-0.325000X1.100000X0.325000X-1.100000X0.325000X-1.100000X-0.325000X0*%
%ADD13RoundRect,0.200000X0.200000X0.275000X-0.200000X0.275000X-0.200000X-0.275000X0.200000X-0.275000X0*%
%ADD14RoundRect,0.218750X0.218750X0.256250X-0.218750X0.256250X-0.218750X-0.256250X0.218750X-0.256250X0*%
%ADD15RoundRect,0.200000X-0.200000X-0.275000X0.200000X-0.275000X0.200000X0.275000X-0.200000X0.275000X0*%
%ADD16RoundRect,0.200000X-0.275000X0.200000X-0.275000X-0.200000X0.275000X-0.200000X0.275000X0.200000X0*%
%ADD17RoundRect,0.225000X-0.250000X0.225000X-0.250000X-0.225000X0.250000X-0.225000X0.250000X0.225000X0*%
%ADD18RoundRect,0.225000X0.225000X0.250000X-0.225000X0.250000X-0.225000X-0.250000X0.225000X-0.250000X0*%
%ADD19RoundRect,0.225000X0.250000X-0.225000X0.250000X0.225000X-0.250000X0.225000X-0.250000X-0.225000X0*%
%ADD20R,0.558800X1.981200*%
%ADD21R,1.030000X0.960000*%
%ADD22R,0.300000X1.550000*%
%ADD23RoundRect,0.250000X-0.362500X-1.425000X0.362500X-1.425000X0.362500X1.425000X-0.362500X1.425000X0*%
%ADD24R,1.270000X0.558800*%
%ADD25RoundRect,0.250000X-0.325000X-1.100000X0.325000X-1.100000X0.325000X1.100000X-0.325000X1.100000X0*%
%ADD26RoundRect,0.075000X0.700000X0.075000X-0.700000X0.075000X-0.700000X-0.075000X0.700000X-0.075000X0*%
%ADD27RoundRect,0.075000X0.075000X0.700000X-0.075000X0.700000X-0.075000X-0.700000X0.075000X-0.700000X0*%
%ADD28RoundRect,0.250000X-0.255000X-0.255000X0.255000X-0.255000X0.255000X0.255000X-0.255000X0.255000X0*%
%ADD29RoundRect,0.062500X-0.350000X-0.062500X0.350000X-0.062500X0.350000X0.062500X-0.350000X0.062500X0*%
%ADD30RoundRect,0.062500X-0.062500X-0.350000X0.062500X-0.350000X0.062500X0.350000X-0.062500X0.350000X0*%
%ADD31RoundRect,0.237500X-0.237500X0.287500X-0.237500X-0.287500X0.237500X-0.287500X0.237500X0.287500X0*%
%ADD32RoundRect,0.250000X-0.325000X-0.650000X0.325000X-0.650000X0.325000X0.650000X-0.325000X0.650000X0*%
%ADD33R,0.558800X1.460500*%
%ADD34RoundRect,0.150000X-0.425000X0.150000X-0.425000X-0.150000X0.425000X-0.150000X0.425000X0.150000X0*%
%ADD35RoundRect,0.075000X-0.500000X0.075000X-0.500000X-0.075000X0.500000X-0.075000X0.500000X0.075000X0*%
%ADD36O,2.100000X1.000000*%
%ADD37O,1.800000X1.000000*%
%ADD38R,2.000000X4.500000*%
%ADD39RoundRect,0.237500X0.237500X-0.287500X0.237500X0.287500X-0.237500X0.287500X-0.237500X-0.287500X0*%
%ADD40RoundRect,0.250000X1.000000X0.650000X-1.000000X0.650000X-1.000000X-0.650000X1.000000X-0.650000X0*%
%ADD41RoundRect,0.250000X0.325000X1.100000X-0.325000X1.100000X-0.325000X-1.100000X0.325000X-1.100000X0*%
%ADD42RoundRect,0.218750X-0.218750X-0.256250X0.218750X-0.256250X0.218750X0.256250X-0.218750X0.256250X0*%
%ADD43R,4.500000X2.000000*%
%ADD44RoundRect,0.250000X0.325000X0.650000X-0.325000X0.650000X-0.325000X-0.650000X0.325000X-0.650000X0*%
G04 APERTURE END LIST*
D10*
%TO.C,L2*%
X111875000Y-83000000D03*
X110125000Y-83000000D03*
%TD*%
D11*
%TO.C,C4*%
X146225000Y-114000000D03*
X147775000Y-114000000D03*
%TD*%
D12*
%TO.C,C54*%
X165000000Y-95674150D03*
X165000000Y-92724150D03*
%TD*%
D13*
%TO.C,R11*%
X166825000Y-107000000D03*
X165175000Y-107000000D03*
%TD*%
D11*
%TO.C,C37*%
X185225000Y-119000000D03*
X186775000Y-119000000D03*
%TD*%
D12*
%TO.C,C50*%
X165000000Y-86475000D03*
X165000000Y-83525000D03*
%TD*%
D11*
%TO.C,C2*%
X124225000Y-107000000D03*
X125775000Y-107000000D03*
%TD*%
%TO.C,C56*%
X151975000Y-123500000D03*
X153525000Y-123500000D03*
%TD*%
D13*
%TO.C,R3*%
X109825000Y-107000000D03*
X108175000Y-107000000D03*
%TD*%
D14*
%TO.C,D1*%
X105787500Y-104000000D03*
X104212500Y-104000000D03*
%TD*%
D13*
%TO.C,R7*%
X119075000Y-94750000D03*
X117425000Y-94750000D03*
%TD*%
D15*
%TO.C,R8*%
X110175000Y-91500000D03*
X111825000Y-91500000D03*
%TD*%
%TO.C,R1*%
X108175000Y-104000000D03*
X109825000Y-104000000D03*
%TD*%
D13*
%TO.C,R16*%
X177450000Y-127625000D03*
X175800000Y-127625000D03*
%TD*%
D16*
%TO.C,R26*%
X125000000Y-70175000D03*
X125000000Y-71825000D03*
%TD*%
D17*
%TO.C,C27*%
X125000000Y-74225000D03*
X125000000Y-75775000D03*
%TD*%
D12*
%TO.C,C46*%
X165000000Y-76475000D03*
X165000000Y-73525000D03*
%TD*%
D13*
%TO.C,R5*%
X102825000Y-91500000D03*
X101175000Y-91500000D03*
%TD*%
D16*
%TO.C,R19*%
X122000000Y-70175000D03*
X122000000Y-71825000D03*
%TD*%
D15*
%TO.C,R2*%
X108175000Y-101000000D03*
X109825000Y-101000000D03*
%TD*%
D18*
%TO.C,C39*%
X186775000Y-114000000D03*
X185225000Y-114000000D03*
%TD*%
D15*
%TO.C,R25*%
X140675000Y-105250000D03*
X142325000Y-105250000D03*
%TD*%
%TO.C,R13*%
X160175000Y-101000000D03*
X161825000Y-101000000D03*
%TD*%
D19*
%TO.C,C51*%
X177200000Y-105000000D03*
X177200000Y-103450000D03*
%TD*%
D18*
%TO.C,C31*%
X170775000Y-112000000D03*
X169225000Y-112000000D03*
%TD*%
D20*
%TO.C,U7*%
X175105000Y-101761200D03*
X173835000Y-101761200D03*
X172565000Y-101761200D03*
X171295000Y-101761200D03*
X171295000Y-106688800D03*
X172565000Y-106688800D03*
X173835000Y-106688800D03*
X175105000Y-106688800D03*
%TD*%
D18*
%TO.C,C25*%
X115775000Y-81000000D03*
X114225000Y-81000000D03*
%TD*%
D21*
%TO.C,U3*%
X122460000Y-86203400D03*
X123730000Y-86203400D03*
X125000000Y-86203400D03*
X126270000Y-86203400D03*
X127540000Y-86203400D03*
X122460000Y-85000000D03*
X123730000Y-85000000D03*
X125000000Y-85000000D03*
X126270000Y-85000000D03*
X127540000Y-85000000D03*
X122460000Y-83796600D03*
X123730000Y-83796600D03*
X125000000Y-83796600D03*
X126270000Y-83796600D03*
X127540000Y-83796600D03*
D22*
X118250000Y-88750000D03*
X118750000Y-88750000D03*
X119250000Y-88750000D03*
X119750000Y-88750000D03*
X120250000Y-88750000D03*
X120750000Y-88750000D03*
X121250000Y-88750000D03*
X121750000Y-88750000D03*
X122250000Y-88750000D03*
X122750000Y-88750000D03*
X123250000Y-88750000D03*
X123750000Y-88750000D03*
X124250000Y-88750000D03*
X124750000Y-88750000D03*
X125250000Y-88750000D03*
X125750000Y-88750000D03*
X126250000Y-88750000D03*
X126750000Y-88750000D03*
X127250000Y-88750000D03*
X127750000Y-88750000D03*
X128250000Y-88750000D03*
X128750000Y-88750000D03*
X129250000Y-88750000D03*
X129750000Y-88750000D03*
X130250000Y-88750000D03*
X130750000Y-88750000D03*
X131250000Y-88750000D03*
X131750000Y-88750000D03*
X131750000Y-81250000D03*
X131250000Y-81250000D03*
X130750000Y-81250000D03*
X130250000Y-81250000D03*
X129750000Y-81250000D03*
X129250000Y-81250000D03*
X128750000Y-81250000D03*
X128250000Y-81250000D03*
X127750000Y-81250000D03*
X127250000Y-81250000D03*
X126750000Y-81250000D03*
X126250000Y-81250000D03*
X125750000Y-81250000D03*
X125250000Y-81250000D03*
X124750000Y-81250000D03*
X124250000Y-81250000D03*
X123750000Y-81250000D03*
X123250000Y-81250000D03*
X122750000Y-81250000D03*
X122250000Y-81250000D03*
X121750000Y-81250000D03*
X121250000Y-81250000D03*
X120750000Y-81250000D03*
X120250000Y-81250000D03*
X119750000Y-81250000D03*
X119250000Y-81250000D03*
X118750000Y-81250000D03*
X118250000Y-81250000D03*
%TD*%
D17*
%TO.C,C16*%
X130000000Y-93225000D03*
X130000000Y-94775000D03*
%TD*%
D23*
%TO.C,R30*%
X176037500Y-92000000D03*
X181962500Y-92000000D03*
%TD*%
D24*
%TO.C,U2*%
X114780800Y-99047500D03*
X114780800Y-100000000D03*
X114780800Y-100952500D03*
X117219200Y-100952500D03*
X117219200Y-99047500D03*
%TD*%
D20*
%TO.C,U6*%
X183905000Y-101536200D03*
X182635000Y-101536200D03*
X181365000Y-101536200D03*
X180095000Y-101536200D03*
X180095000Y-106463800D03*
X181365000Y-106463800D03*
X182635000Y-106463800D03*
X183905000Y-106463800D03*
%TD*%
D25*
%TO.C,C12*%
X103525000Y-74000000D03*
X106475000Y-74000000D03*
%TD*%
D26*
%TO.C,U1*%
X139175000Y-118000000D03*
X139175000Y-117500000D03*
X139175000Y-117000000D03*
X139175000Y-116500000D03*
X139175000Y-116000000D03*
X139175000Y-115500000D03*
X139175000Y-115000000D03*
X139175000Y-114500000D03*
X139175000Y-114000000D03*
X139175000Y-113500000D03*
X139175000Y-113000000D03*
X139175000Y-112500000D03*
X139175000Y-112000000D03*
X139175000Y-111500000D03*
X139175000Y-111000000D03*
X139175000Y-110500000D03*
D27*
X137250000Y-108575000D03*
X136750000Y-108575000D03*
X136250000Y-108575000D03*
X135750000Y-108575000D03*
X135250000Y-108575000D03*
X134750000Y-108575000D03*
X134250000Y-108575000D03*
X133750000Y-108575000D03*
X133250000Y-108575000D03*
X132750000Y-108575000D03*
X132250000Y-108575000D03*
X131750000Y-108575000D03*
X131250000Y-108575000D03*
X130750000Y-108575000D03*
X130250000Y-108575000D03*
X129750000Y-108575000D03*
D26*
X127825000Y-110500000D03*
X127825000Y-111000000D03*
X127825000Y-111500000D03*
X127825000Y-112000000D03*
X127825000Y-112500000D03*
X127825000Y-113000000D03*
X127825000Y-113500000D03*
X127825000Y-114000000D03*
X127825000Y-114500000D03*
X127825000Y-115000000D03*
X127825000Y-115500000D03*
X127825000Y-116000000D03*
X127825000Y-116500000D03*
X127825000Y-117000000D03*
X127825000Y-117500000D03*
X127825000Y-118000000D03*
D27*
X129750000Y-119925000D03*
X130250000Y-119925000D03*
X130750000Y-119925000D03*
X131250000Y-119925000D03*
X131750000Y-119925000D03*
X132250000Y-119925000D03*
X132750000Y-119925000D03*
X133250000Y-119925000D03*
X133750000Y-119925000D03*
X134250000Y-119925000D03*
X134750000Y-119925000D03*
X135250000Y-119925000D03*
X135750000Y-119925000D03*
X136250000Y-119925000D03*
X136750000Y-119925000D03*
X137250000Y-119925000D03*
%TD*%
D13*
%TO.C,R22*%
X156825000Y-104000000D03*
X155175000Y-104000000D03*
%TD*%
D11*
%TO.C,C3*%
X119225000Y-117000000D03*
X120775000Y-117000000D03*
%TD*%
D16*
%TO.C,R34*%
X162000000Y-123175000D03*
X162000000Y-124825000D03*
%TD*%
D13*
%TO.C,R4*%
X106575000Y-91500000D03*
X104925000Y-91500000D03*
%TD*%
D11*
%TO.C,C33*%
X169225000Y-114000000D03*
X170775000Y-114000000D03*
%TD*%
D28*
%TO.C,U4*%
X176000000Y-114750000D03*
X176000000Y-116000000D03*
X177250000Y-114750000D03*
X177250000Y-116000000D03*
D29*
X174687500Y-114375000D03*
X174687500Y-114875000D03*
X174687500Y-115375000D03*
X174687500Y-115875000D03*
X174687500Y-116375000D03*
D30*
X175625000Y-117312500D03*
X176125000Y-117312500D03*
X176625000Y-117312500D03*
X177125000Y-117312500D03*
X177625000Y-117312500D03*
D29*
X178562500Y-116375000D03*
X178562500Y-115875000D03*
X178562500Y-115375000D03*
X178562500Y-114875000D03*
X178562500Y-114375000D03*
D30*
X177625000Y-113437500D03*
X177125000Y-113437500D03*
X176625000Y-113437500D03*
X176125000Y-113437500D03*
X175625000Y-113437500D03*
%TD*%
D31*
%TO.C,L4*%
X182700000Y-112225000D03*
X182700000Y-113975000D03*
%TD*%
D18*
%TO.C,C32*%
X174775000Y-120000000D03*
X173225000Y-120000000D03*
%TD*%
D13*
%TO.C,R29*%
X136825000Y-98000000D03*
X135175000Y-98000000D03*
%TD*%
D19*
%TO.C,C47*%
X186215000Y-104800850D03*
X186215000Y-103250850D03*
%TD*%
%TO.C,C34*%
X180700000Y-113175000D03*
X180700000Y-111625000D03*
%TD*%
D16*
%TO.C,R18*%
X119000000Y-70175000D03*
X119000000Y-71825000D03*
%TD*%
D32*
%TO.C,C30*%
X103525000Y-80930000D03*
X106475000Y-80930000D03*
%TD*%
D11*
%TO.C,C29*%
X104225000Y-78250000D03*
X105775000Y-78250000D03*
%TD*%
D33*
%TO.C,Q6*%
X172905000Y-97448300D03*
X169095000Y-92000000D03*
X170365000Y-92000000D03*
X171635000Y-92000000D03*
X172905000Y-92000000D03*
X169095000Y-97448300D03*
X170365000Y-97448300D03*
X171635000Y-97448300D03*
%TD*%
D13*
%TO.C,R37*%
X115825000Y-114000000D03*
X114175000Y-114000000D03*
%TD*%
D18*
%TO.C,C35*%
X182150000Y-127625000D03*
X180600000Y-127625000D03*
%TD*%
D13*
%TO.C,R41*%
X115825000Y-122000000D03*
X114175000Y-122000000D03*
%TD*%
D34*
%TO.C,J9*%
X107680000Y-114800000D03*
X107680000Y-115600000D03*
D35*
X107680000Y-116750000D03*
X107680000Y-117750000D03*
X107680000Y-118250000D03*
X107680000Y-119250000D03*
D34*
X107680000Y-120400000D03*
X107680000Y-121200000D03*
X107680000Y-121200000D03*
X107680000Y-120400000D03*
D35*
X107680000Y-119750000D03*
X107680000Y-118750000D03*
X107680000Y-117250000D03*
X107680000Y-116250000D03*
D34*
X107680000Y-115600000D03*
X107680000Y-114800000D03*
D36*
X107105000Y-113680000D03*
D37*
X102925000Y-113680000D03*
D36*
X107105000Y-122320000D03*
D37*
X102925000Y-122320000D03*
%TD*%
D10*
%TO.C,L3*%
X182675000Y-115900000D03*
X180925000Y-115900000D03*
%TD*%
D12*
%TO.C,C45*%
X154095000Y-76199150D03*
X154095000Y-73249150D03*
%TD*%
D19*
%TO.C,C9*%
X144000000Y-109775000D03*
X144000000Y-108225000D03*
%TD*%
D13*
%TO.C,R31*%
X133825000Y-73000000D03*
X132175000Y-73000000D03*
%TD*%
D11*
%TO.C,C38*%
X185225000Y-121200000D03*
X186775000Y-121200000D03*
%TD*%
D18*
%TO.C,C7*%
X156525000Y-114250000D03*
X154975000Y-114250000D03*
%TD*%
D13*
%TO.C,R28*%
X137000000Y-95000000D03*
X135350000Y-95000000D03*
%TD*%
D14*
%TO.C,D3*%
X105787500Y-107000000D03*
X104212500Y-107000000D03*
%TD*%
D38*
%TO.C,X1*%
X150000000Y-110750000D03*
X150000000Y-119250000D03*
%TD*%
D39*
%TO.C,L5*%
X180900000Y-119875000D03*
X180900000Y-118125000D03*
%TD*%
D20*
%TO.C,U5*%
X179905000Y-62536200D03*
X178635000Y-62536200D03*
X177365000Y-62536200D03*
X176095000Y-62536200D03*
X176095000Y-67463800D03*
X177365000Y-67463800D03*
X178635000Y-67463800D03*
X179905000Y-67463800D03*
%TD*%
D33*
%TO.C,Q4*%
X172905000Y-87724150D03*
X169095000Y-82275850D03*
X170365000Y-82275850D03*
X171635000Y-82275850D03*
X172905000Y-82275850D03*
X169095000Y-87724150D03*
X170365000Y-87724150D03*
X171635000Y-87724150D03*
%TD*%
D40*
%TO.C,D4*%
X113000000Y-86500000D03*
X109000000Y-86500000D03*
%TD*%
D15*
%TO.C,R12*%
X160175000Y-107000000D03*
X161825000Y-107000000D03*
%TD*%
D13*
%TO.C,R42*%
X112000000Y-116000000D03*
X110350000Y-116000000D03*
%TD*%
D18*
%TO.C,C40*%
X186775000Y-116650000D03*
X185225000Y-116650000D03*
%TD*%
%TO.C,C13*%
X119025000Y-96750000D03*
X117475000Y-96750000D03*
%TD*%
D41*
%TO.C,C28*%
X116475000Y-77750000D03*
X113525000Y-77750000D03*
%TD*%
D18*
%TO.C,C42*%
X151775000Y-101000000D03*
X150225000Y-101000000D03*
%TD*%
D15*
%TO.C,R43*%
X108175000Y-110000000D03*
X109825000Y-110000000D03*
%TD*%
D11*
%TO.C,C6*%
X120000000Y-109000000D03*
X121550000Y-109000000D03*
%TD*%
D18*
%TO.C,C43*%
X151775000Y-107000000D03*
X150225000Y-107000000D03*
%TD*%
D13*
%TO.C,R38*%
X115825000Y-120000000D03*
X114175000Y-120000000D03*
%TD*%
D18*
%TO.C,C11*%
X124275000Y-120000000D03*
X122725000Y-120000000D03*
%TD*%
D11*
%TO.C,C36*%
X170600000Y-127625000D03*
X172150000Y-127625000D03*
%TD*%
D33*
%TO.C,Q2*%
X172905000Y-77724150D03*
X169095000Y-72275850D03*
X170365000Y-72275850D03*
X171635000Y-72275850D03*
X172905000Y-72275850D03*
X169095000Y-77724150D03*
X170365000Y-77724150D03*
X171635000Y-77724150D03*
%TD*%
D17*
%TO.C,C23*%
X122000000Y-74225000D03*
X122000000Y-75775000D03*
%TD*%
D23*
%TO.C,R23*%
X176037500Y-83000000D03*
X181962500Y-83000000D03*
%TD*%
D18*
%TO.C,C20*%
X116875000Y-107000000D03*
X115325000Y-107000000D03*
%TD*%
D13*
%TO.C,R40*%
X115825000Y-118000000D03*
X114175000Y-118000000D03*
%TD*%
%TO.C,R9*%
X166825000Y-101000000D03*
X165175000Y-101000000D03*
%TD*%
%TO.C,R21*%
X156825000Y-107000000D03*
X155175000Y-107000000D03*
%TD*%
D11*
%TO.C,C17*%
X110225000Y-93750000D03*
X111775000Y-93750000D03*
%TD*%
D13*
%TO.C,R32*%
X133825000Y-76000000D03*
X132175000Y-76000000D03*
%TD*%
D16*
%TO.C,R27*%
X128000000Y-70175000D03*
X128000000Y-71825000D03*
%TD*%
D15*
%TO.C,R6*%
X110175000Y-96000000D03*
X111825000Y-96000000D03*
%TD*%
D33*
%TO.C,Q1*%
X157190000Y-72275850D03*
X161000000Y-77724150D03*
X159730000Y-77724150D03*
X158460000Y-77724150D03*
X157190000Y-77724150D03*
X161000000Y-72275850D03*
X159730000Y-72275850D03*
X158460000Y-72275850D03*
%TD*%
D15*
%TO.C,R36*%
X151925000Y-125250000D03*
X153575000Y-125250000D03*
%TD*%
D14*
%TO.C,D2*%
X105787500Y-101000000D03*
X104212500Y-101000000D03*
%TD*%
D42*
%TO.C,D5*%
X104212500Y-110000000D03*
X105787500Y-110000000D03*
%TD*%
D18*
%TO.C,L1*%
X121475000Y-104000000D03*
X119925000Y-104000000D03*
%TD*%
D33*
%TO.C,Q5*%
X157190000Y-91724150D03*
X161000000Y-97172450D03*
X159730000Y-97172450D03*
X158460000Y-97172450D03*
X157190000Y-97172450D03*
X161000000Y-91724150D03*
X159730000Y-91724150D03*
X158460000Y-91724150D03*
%TD*%
D32*
%TO.C,C15*%
X104025000Y-96000000D03*
X106975000Y-96000000D03*
%TD*%
D13*
%TO.C,R39*%
X115825000Y-116000000D03*
X114175000Y-116000000D03*
%TD*%
D15*
%TO.C,R14*%
X160175000Y-104000000D03*
X161825000Y-104000000D03*
%TD*%
D16*
%TO.C,R35*%
X165000000Y-123175000D03*
X165000000Y-124825000D03*
%TD*%
D17*
%TO.C,C19*%
X124000000Y-94475000D03*
X124000000Y-96025000D03*
%TD*%
D12*
%TO.C,C22*%
X137000000Y-82475000D03*
X137000000Y-79525000D03*
%TD*%
D18*
%TO.C,C1*%
X156525000Y-116500000D03*
X154975000Y-116500000D03*
%TD*%
%TO.C,C44*%
X151775000Y-104000000D03*
X150225000Y-104000000D03*
%TD*%
D17*
%TO.C,C18*%
X132000000Y-93225000D03*
X132000000Y-94775000D03*
%TD*%
D11*
%TO.C,C48*%
X140725000Y-103250000D03*
X142275000Y-103250000D03*
%TD*%
D12*
%TO.C,C55*%
X154095000Y-95923300D03*
X154095000Y-92973300D03*
%TD*%
D11*
%TO.C,C5*%
X120000000Y-107000000D03*
X121550000Y-107000000D03*
%TD*%
D19*
%TO.C,C41*%
X184000000Y-65775000D03*
X184000000Y-64225000D03*
%TD*%
D17*
%TO.C,C26*%
X119000000Y-74225000D03*
X119000000Y-75775000D03*
%TD*%
D13*
%TO.C,R15*%
X190925000Y-110600000D03*
X189275000Y-110600000D03*
%TD*%
D11*
%TO.C,C8*%
X135225000Y-105000000D03*
X136775000Y-105000000D03*
%TD*%
D12*
%TO.C,C49*%
X154095000Y-86199150D03*
X154095000Y-83249150D03*
%TD*%
D33*
%TO.C,Q3*%
X157190000Y-82275850D03*
X161000000Y-87724150D03*
X159730000Y-87724150D03*
X158460000Y-87724150D03*
X157190000Y-87724150D03*
X161000000Y-82275850D03*
X159730000Y-82275850D03*
X158460000Y-82275850D03*
%TD*%
D43*
%TO.C,X2*%
X172125000Y-123375000D03*
X180625000Y-123375000D03*
%TD*%
D16*
%TO.C,R33*%
X159000000Y-123175000D03*
X159000000Y-124825000D03*
%TD*%
D23*
%TO.C,R17*%
X176037500Y-73000000D03*
X181962500Y-73000000D03*
%TD*%
D15*
%TO.C,R24*%
X135175000Y-101000000D03*
X136825000Y-101000000D03*
%TD*%
D13*
%TO.C,R20*%
X156825000Y-101000000D03*
X155175000Y-101000000D03*
%TD*%
D18*
%TO.C,C10*%
X139775000Y-122750000D03*
X138225000Y-122750000D03*
%TD*%
D13*
%TO.C,R10*%
X166825000Y-104000000D03*
X165175000Y-104000000D03*
%TD*%
D44*
%TO.C,C21*%
X117475000Y-104000000D03*
X114525000Y-104000000D03*
%TD*%
D18*
%TO.C,C24*%
X128775000Y-76000000D03*
X127225000Y-76000000D03*
%TD*%
M02*
