%TF.GenerationSoftware,KiCad,Pcbnew,8.0.2*%
%TF.CreationDate,2024-10-03T19:13:02-03:00*%
%TF.ProjectId,ESCX,45534358-2e6b-4696-9361-645f70636258,rev?*%
%TF.SameCoordinates,Original*%
%TF.FileFunction,Legend,Bot*%
%TF.FilePolarity,Positive*%
%FSLAX46Y46*%
G04 Gerber Fmt 4.6, Leading zero omitted, Abs format (unit mm)*
G04 Created by KiCad (PCBNEW 8.0.2) date 2024-10-03 19:13:02*
%MOMM*%
%LPD*%
G01*
G04 APERTURE LIST*
%ADD10C,0.150000*%
%ADD11C,0.120000*%
G04 APERTURE END LIST*
D10*
X195661904Y-79056819D02*
X195090476Y-79056819D01*
X195376190Y-80056819D02*
X195376190Y-79056819D01*
X194757142Y-80056819D02*
X194757142Y-79056819D01*
X194757142Y-79056819D02*
X194376190Y-79056819D01*
X194376190Y-79056819D02*
X194280952Y-79104438D01*
X194280952Y-79104438D02*
X194233333Y-79152057D01*
X194233333Y-79152057D02*
X194185714Y-79247295D01*
X194185714Y-79247295D02*
X194185714Y-79390152D01*
X194185714Y-79390152D02*
X194233333Y-79485390D01*
X194233333Y-79485390D02*
X194280952Y-79533009D01*
X194280952Y-79533009D02*
X194376190Y-79580628D01*
X194376190Y-79580628D02*
X194757142Y-79580628D01*
X193804761Y-79152057D02*
X193757142Y-79104438D01*
X193757142Y-79104438D02*
X193661904Y-79056819D01*
X193661904Y-79056819D02*
X193423809Y-79056819D01*
X193423809Y-79056819D02*
X193328571Y-79104438D01*
X193328571Y-79104438D02*
X193280952Y-79152057D01*
X193280952Y-79152057D02*
X193233333Y-79247295D01*
X193233333Y-79247295D02*
X193233333Y-79342533D01*
X193233333Y-79342533D02*
X193280952Y-79485390D01*
X193280952Y-79485390D02*
X193852380Y-80056819D01*
X193852380Y-80056819D02*
X193233333Y-80056819D01*
X195561904Y-84156819D02*
X194990476Y-84156819D01*
X195276190Y-85156819D02*
X195276190Y-84156819D01*
X194657142Y-85156819D02*
X194657142Y-84156819D01*
X194657142Y-84156819D02*
X194276190Y-84156819D01*
X194276190Y-84156819D02*
X194180952Y-84204438D01*
X194180952Y-84204438D02*
X194133333Y-84252057D01*
X194133333Y-84252057D02*
X194085714Y-84347295D01*
X194085714Y-84347295D02*
X194085714Y-84490152D01*
X194085714Y-84490152D02*
X194133333Y-84585390D01*
X194133333Y-84585390D02*
X194180952Y-84633009D01*
X194180952Y-84633009D02*
X194276190Y-84680628D01*
X194276190Y-84680628D02*
X194657142Y-84680628D01*
X193133333Y-85156819D02*
X193704761Y-85156819D01*
X193419047Y-85156819D02*
X193419047Y-84156819D01*
X193419047Y-84156819D02*
X193514285Y-84299676D01*
X193514285Y-84299676D02*
X193609523Y-84394914D01*
X193609523Y-84394914D02*
X193704761Y-84442533D01*
X195761904Y-73956819D02*
X195190476Y-73956819D01*
X195476190Y-74956819D02*
X195476190Y-73956819D01*
X194857142Y-74956819D02*
X194857142Y-73956819D01*
X194857142Y-73956819D02*
X194476190Y-73956819D01*
X194476190Y-73956819D02*
X194380952Y-74004438D01*
X194380952Y-74004438D02*
X194333333Y-74052057D01*
X194333333Y-74052057D02*
X194285714Y-74147295D01*
X194285714Y-74147295D02*
X194285714Y-74290152D01*
X194285714Y-74290152D02*
X194333333Y-74385390D01*
X194333333Y-74385390D02*
X194380952Y-74433009D01*
X194380952Y-74433009D02*
X194476190Y-74480628D01*
X194476190Y-74480628D02*
X194857142Y-74480628D01*
X193952380Y-73956819D02*
X193333333Y-73956819D01*
X193333333Y-73956819D02*
X193666666Y-74337771D01*
X193666666Y-74337771D02*
X193523809Y-74337771D01*
X193523809Y-74337771D02*
X193428571Y-74385390D01*
X193428571Y-74385390D02*
X193380952Y-74433009D01*
X193380952Y-74433009D02*
X193333333Y-74528247D01*
X193333333Y-74528247D02*
X193333333Y-74766342D01*
X193333333Y-74766342D02*
X193380952Y-74861580D01*
X193380952Y-74861580D02*
X193428571Y-74909200D01*
X193428571Y-74909200D02*
X193523809Y-74956819D01*
X193523809Y-74956819D02*
X193809523Y-74956819D01*
X193809523Y-74956819D02*
X193904761Y-74909200D01*
X193904761Y-74909200D02*
X193952380Y-74861580D01*
D11*
%TO.C,TP2*%
X196650000Y-82500000D02*
G75*
G02*
X192150000Y-82500000I-2250000J0D01*
G01*
X192150000Y-82500000D02*
G75*
G02*
X196650000Y-82500000I2250000J0D01*
G01*
%TO.C,TP1*%
X196550000Y-87600000D02*
G75*
G02*
X192050000Y-87600000I-2250000J0D01*
G01*
X192050000Y-87600000D02*
G75*
G02*
X196550000Y-87600000I2250000J0D01*
G01*
%TO.C,TP3*%
X196750000Y-77400000D02*
G75*
G02*
X192250000Y-77400000I-2250000J0D01*
G01*
X192250000Y-77400000D02*
G75*
G02*
X196750000Y-77400000I2250000J0D01*
G01*
%TD*%
M02*
