M48
; DRILL file {KiCad 8.0.2} date 2024-10-24T11:45:51-0300
; FORMAT={-:-/ absolute / inch / decimal}
; #@! TF.CreationDate,2024-10-24T11:45:51-03:00
; #@! TF.GenerationSoftware,Kicad,Pcbnew,8.0.2
; #@! TF.FileFunction,Plated,1,4,PTH
FMAT,2
INCH
; #@! TA.AperFunction,Plated,PTH,ViaDrill
T1C0.0118
; #@! TA.AperFunction,Plated,PTH,ViaDrill
T2C0.0157
; #@! TA.AperFunction,Plated,PTH,ComponentDrill
T3C0.0236
; #@! TA.AperFunction,Plated,PTH,ComponentDrill
T4C0.0394
; #@! TA.AperFunction,Plated,PTH,ComponentDrill
T5C0.0512
%
G90
G05
T1
X3.9862Y-3.002
X4.0059Y-2.2244
X4.0945Y-2.3228
X4.0945Y-2.5197
X4.0945Y-3.3071
X4.0945Y-3.5039
X4.0945Y-3.7008
X4.124Y-4.8819
X4.2126Y-3.0512
X4.2323Y-4.4764
X4.2579Y-3.1909
X4.2913Y-2.5197
X4.2913Y-2.7165
X4.2913Y-4.0945
X4.2913Y-4.685
X4.2913Y-5.0787
X4.3012Y-2.2263
X4.3356Y-4.4734
X4.3406Y-4.3307
X4.3465Y-4.2362
X4.3602Y-2.4114
X4.3799Y-1.9882
X4.3799Y-4.685
X4.3819Y-3.0217
X4.3898Y-3.7303
X4.3996Y-4.6555
X4.4035Y-3.0808
X4.4094Y-2.2263
X4.4094Y-4.6122
X4.4193Y-3.1004
X4.4252Y-4.5908
X4.4409Y-3.1201
X4.4783Y-3.7303
X4.4882Y-4.8819
X4.4882Y-5.0787
X4.5177Y-4.1437
X4.5374Y-4.0846
X4.5571Y-3.7303
X4.5669Y-3.9665
X4.5768Y-1.9882
X4.5768Y-3.5531
X4.5827Y-4.1831
X4.5965Y-2.6673
X4.626Y-4.2402
X4.6299Y-3.0354
X4.6299Y-3.0874
X4.6299Y-3.1374
X4.6299Y-3.1874
X4.6299Y-3.2374
X4.6299Y-3.2874
X4.6299Y-3.3346
X4.6299Y-3.3819
X4.6457Y-4.1831
X4.6457Y-4.3228
X4.6457Y-4.9134
X4.6614Y-4.1535
X4.6654Y-4.2345
X4.677Y-3.189
X4.6772Y-3.0346
X4.6772Y-3.0866
X4.6772Y-3.1366
X4.6772Y-3.2366
X4.6772Y-3.2866
X4.6772Y-3.3339
X4.6772Y-3.3811
X4.689Y-4.1929
X4.689Y-4.3976
X4.7087Y-4.2835
X4.7146Y-2.7953
X4.7146Y-4.1732
X4.7195Y-4.5226
X4.7244Y-3.0354
X4.7244Y-3.0874
X4.7244Y-3.1374
X4.7244Y-3.1874
X4.7244Y-3.2374
X4.7244Y-3.2874
X4.7244Y-3.3346
X4.7244Y-3.3819
X4.7244Y-3.5138
X4.7244Y-3.937
X4.7293Y-2.185
X4.7293Y-2.3524
X4.7343Y-4.2165
X4.7539Y-4.9016
X4.7736Y-4.5472
X4.7933Y-4.0354
X4.8031Y-3.5039
X4.8327Y-4.1535
X4.8445Y-3.7106
X4.872Y-4.3504
X4.872Y-4.9016
X4.9016Y-4.3307
X4.9094Y-4.7835
X4.9114Y-4.2028
X4.9154Y-3.2776
X4.9213Y-3.7106
X4.9252Y-3.0512
X4.9311Y-4.311
X4.9666Y-4.4331
X4.9666Y-4.4646
X4.9705Y-2.8839
X4.9705Y-2.9685
X4.9727Y-3.0315
X4.9925Y-2.6551
X5.0Y-4.0453
X5.0098Y-4.7244
X5.0098Y-4.9213
X5.0197Y-3.7106
X5.0295Y-4.7047
X5.0492Y-4.685
X5.0787Y-1.9291
X5.0787Y-2.126
X5.0787Y-2.3228
X5.0886Y-4.5276
X5.1132Y-4.06
X5.1181Y-3.3858
X5.1339Y-4.5315
X5.1378Y-4.6654
X5.1614Y-2.9843
X5.1673Y-4.2323
X5.1772Y-4.2913
X5.1969Y-4.2126
X5.2067Y-4.4193
X5.2067Y-4.6457
X5.2087Y-2.9252
X5.2657Y-4.8425
X5.2756Y-1.9291
X5.2756Y-2.126
X5.2756Y-2.3228
X5.2756Y-5.0787
X5.2854Y-4.6443
X5.3077Y-4.622
X5.315Y-2.9134
X5.315Y-3.4252
X5.315Y-4.5571
X5.3202Y-3.9971
X5.3346Y-4.3386
X5.3346Y-4.3622
X5.3346Y-4.3976
X5.3445Y-4.498
X5.3543Y-4.813
X5.3583Y-4.2992
X5.376Y-4.2776
X5.392Y-4.2598
X5.3937Y-3.5433
X5.3937Y-3.5827
X5.3937Y-3.622
X5.3937Y-3.6614
X5.3937Y-4.0551
X5.3937Y-4.0945
X5.3937Y-4.1339
X5.4035Y-4.3406
X5.4331Y-2.7165
X5.4331Y-2.7559
X5.4331Y-2.7953
X5.4331Y-2.8346
X5.4331Y-2.874
X5.4331Y-2.9528
X5.4331Y-2.9921
X5.4331Y-3.0315
X5.4331Y-3.0709
X5.4331Y-3.5433
X5.4331Y-3.5827
X5.4331Y-3.622
X5.4331Y-3.6614
X5.4331Y-4.0551
X5.4331Y-4.0945
X5.4331Y-4.1339
X5.4331Y-4.1732
X5.437Y-3.2677
X5.437Y-3.3071
X5.437Y-3.3465
X5.437Y-3.3858
X5.437Y-3.4252
X5.437Y-3.8189
X5.437Y-3.8583
X5.437Y-3.8976
X5.437Y-3.937
X5.437Y-3.9764
X5.4724Y-2.7165
X5.4724Y-2.7559
X5.4724Y-2.7953
X5.4724Y-2.8346
X5.4724Y-2.874
X5.4724Y-2.9528
X5.4724Y-2.9921
X5.4724Y-3.0315
X5.4724Y-3.0709
X5.4724Y-3.5433
X5.4724Y-3.5827
X5.4724Y-3.622
X5.4724Y-3.6614
X5.4724Y-4.0551
X5.4724Y-4.0945
X5.4724Y-4.1339
X5.4724Y-4.1732
X5.4764Y-3.2677
X5.4764Y-3.3071
X5.4764Y-3.3465
X5.4764Y-3.3858
X5.4764Y-3.4252
X5.4764Y-3.8189
X5.4764Y-3.8583
X5.4764Y-3.8976
X5.4764Y-3.937
X5.4764Y-3.9764
X5.5118Y-2.7165
X5.5118Y-2.7559
X5.5118Y-2.8346
X5.5118Y-2.874
X5.5157Y-3.2677
X5.5157Y-3.3071
X5.5157Y-3.3465
X5.5157Y-3.3858
X5.5157Y-3.4252
X5.5157Y-3.8189
X5.5157Y-3.8583
X5.5157Y-3.8976
X5.5157Y-3.937
X5.5157Y-3.9764
X5.5297Y-4.9606
X5.5315Y-4.5276
X5.5591Y-4.8406
X5.5807Y-4.3406
X5.6299Y-4.8425
X5.6594Y-4.9606
X5.6693Y-2.9921
X5.6693Y-3.5433
X5.6693Y-4.0945
X5.6693Y-4.4882
X5.6693Y-5.0787
X5.7087Y-2.9921
X5.7087Y-3.5433
X5.7087Y-4.6358
X5.8661Y-2.3228
X5.8661Y-4.4882
X5.8661Y-4.8819
X5.9154Y-4.6654
X5.9449Y-3.0709
X5.9449Y-4.1339
X5.9843Y-3.0709
X5.9843Y-3.3465
X5.9843Y-4.1339
X6.0236Y-3.0709
X6.0236Y-3.3465
X6.0236Y-4.1339
X6.063Y-2.3228
X6.063Y-2.5197
X6.063Y-3.3465
X6.063Y-4.8819
X6.063Y-5.0787
X6.2598Y-2.5197
X6.2598Y-4.8819
X6.2598Y-5.0787
X6.2874Y-2.9606
X6.2874Y-3.4606
X6.2874Y-4.0118
X6.3583Y-4.1929
X6.4567Y-2.3228
X6.4567Y-2.5197
X6.4567Y-2.7165
X6.4567Y-3.1102
X6.4567Y-3.5039
X6.4567Y-4.8819
X6.4567Y-5.0787
X6.5591Y-4.315
X6.5827Y-4.2913
X6.5846Y-4.0551
X6.6063Y-4.2638
X6.6535Y-2.3228
X6.6535Y-2.5197
X6.6535Y-2.7165
X6.6535Y-3.1102
X6.6535Y-3.7008
X6.6535Y-4.4882
X6.6634Y-3.8583
X6.6634Y-3.9173
X6.6693Y-4.1772
X6.6742Y-3.7901
X6.6969Y-4.1969
X6.7205Y-4.2173
X6.811Y-4.0354
X6.811Y-4.4488
X6.815Y-4.3425
X6.8504Y-2.3228
X6.8504Y-2.5197
X6.8504Y-2.7165
X6.8504Y-4.4882
X6.8504Y-4.685
X6.9193Y-3.6024
X6.9695Y-4.2822
X7.0167Y-3.7547
X7.0472Y-2.3228
X7.0472Y-2.5197
X7.0472Y-2.7165
X7.0472Y-3.1102
X7.0472Y-3.8583
X7.0472Y-3.9173
X7.0472Y-4.4882
X7.0472Y-4.685
X7.0472Y-4.8819
X7.0472Y-5.0787
X7.064Y-3.6614
X7.2008Y-4.3583
X7.2047Y-4.4252
X7.2441Y-1.9291
X7.2441Y-2.126
X7.2441Y-2.3228
X7.2441Y-4.4882
X7.2441Y-4.685
X7.2441Y-4.8819
X7.2441Y-5.0787
X7.3434Y-3.621
X7.3899Y-3.699
X7.3947Y-3.7862
X7.3947Y-4.2665
X7.4213Y-3.8583
X7.4213Y-3.9173
X7.4409Y-1.9291
X7.4409Y-2.126
X7.4409Y-3.5039
X7.4409Y-4.4882
X7.4409Y-4.685
X7.4409Y-4.8819
X7.4409Y-5.0787
X7.4498Y-3.7507
X7.6378Y-3.5039
X7.687Y-3.6614
T2
X5.1181Y-3.1447
X5.3465Y-3.1496
T4
X4.0551Y-3.8945
X4.0551Y-3.9945
X4.0551Y-4.0945
X4.0551Y-4.1945
X4.0551Y-4.2945
X4.0551Y-4.5638
X4.0551Y-4.6638
X4.0551Y-4.7638
X4.5866Y-5.0787
X4.6866Y-5.0787
X4.7866Y-5.0787
X4.8866Y-5.0787
X4.9866Y-5.0787
X5.0866Y-5.0787
X5.4331Y-2.0177
X5.4331Y-2.313
X5.9843Y-2.7559
X6.0472Y-4.189
X6.0512Y-3.6457
X6.1811Y-2.0177
X6.1811Y-2.313
X6.2205Y-2.6772
X6.2598Y-3.2677
X6.2598Y-3.7795
X6.5748Y-3.937
X6.611Y-5.0
X6.611Y-5.1
X6.711Y-5.0
X6.711Y-5.1
X6.811Y-5.0
X6.811Y-5.1
X6.8504Y-4.5669
X6.911Y-5.0
X6.911Y-5.1
X7.2047Y-4.5669
X7.5984Y-4.5669
T5
X6.9081Y-1.9959
X7.1081Y-1.9959
X7.5591Y-2.9496
X7.5591Y-3.1496
X7.5591Y-3.3496
T3
G00X5.4205Y-4.9053
M15
G01X5.4205Y-4.9486
M16
G05
G00X5.4205Y-5.0758
M15
G01X5.4205Y-5.1073
M16
G05
G00X5.7606Y-4.9053
M15
G01X5.7606Y-4.9486
M16
G05
G00X5.7606Y-5.0758
M15
G01X5.7606Y-5.1073
M16
G05
M30
