%TF.GenerationSoftware,KiCad,Pcbnew,8.0.2*%
%TF.CreationDate,2024-10-17T17:48:59-03:00*%
%TF.ProjectId,ESCX,45534358-2e6b-4696-9361-645f70636258,rev?*%
%TF.SameCoordinates,Original*%
%TF.FileFunction,Paste,Top*%
%TF.FilePolarity,Positive*%
%FSLAX46Y46*%
G04 Gerber Fmt 4.6, Leading zero omitted, Abs format (unit mm)*
G04 Created by KiCad (PCBNEW 8.0.2) date 2024-10-17 17:48:59*
%MOMM*%
%LPD*%
G01*
G04 APERTURE LIST*
G04 Aperture macros list*
%AMRoundRect*
0 Rectangle with rounded corners*
0 $1 Rounding radius*
0 $2 $3 $4 $5 $6 $7 $8 $9 X,Y pos of 4 corners*
0 Add a 4 corners polygon primitive as box body*
4,1,4,$2,$3,$4,$5,$6,$7,$8,$9,$2,$3,0*
0 Add four circle primitives for the rounded corners*
1,1,$1+$1,$2,$3*
1,1,$1+$1,$4,$5*
1,1,$1+$1,$6,$7*
1,1,$1+$1,$8,$9*
0 Add four rect primitives between the rounded corners*
20,1,$1+$1,$2,$3,$4,$5,0*
20,1,$1+$1,$4,$5,$6,$7,0*
20,1,$1+$1,$6,$7,$8,$9,0*
20,1,$1+$1,$8,$9,$2,$3,0*%
G04 Aperture macros list end*
%ADD10RoundRect,0.237500X0.287500X0.237500X-0.287500X0.237500X-0.287500X-0.237500X0.287500X-0.237500X0*%
%ADD11RoundRect,0.225000X-0.225000X-0.250000X0.225000X-0.250000X0.225000X0.250000X-0.225000X0.250000X0*%
%ADD12RoundRect,0.200000X0.200000X0.275000X-0.200000X0.275000X-0.200000X-0.275000X0.200000X-0.275000X0*%
%ADD13RoundRect,0.225000X0.225000X0.250000X-0.225000X0.250000X-0.225000X-0.250000X0.225000X-0.250000X0*%
%ADD14RoundRect,0.200000X-0.275000X0.200000X-0.275000X-0.200000X0.275000X-0.200000X0.275000X0.200000X0*%
%ADD15RoundRect,0.218750X-0.256250X0.218750X-0.256250X-0.218750X0.256250X-0.218750X0.256250X0.218750X0*%
%ADD16RoundRect,0.200000X0.275000X-0.200000X0.275000X0.200000X-0.275000X0.200000X-0.275000X-0.200000X0*%
%ADD17RoundRect,0.250000X-0.362500X-1.425000X0.362500X-1.425000X0.362500X1.425000X-0.362500X1.425000X0*%
%ADD18RoundRect,0.250000X-1.100000X0.325000X-1.100000X-0.325000X1.100000X-0.325000X1.100000X0.325000X0*%
%ADD19RoundRect,0.200000X-0.200000X-0.275000X0.200000X-0.275000X0.200000X0.275000X-0.200000X0.275000X0*%
%ADD20R,1.981200X0.558800*%
%ADD21R,0.960000X1.030000*%
%ADD22R,1.550000X0.300000*%
%ADD23RoundRect,0.225000X-0.250000X0.225000X-0.250000X-0.225000X0.250000X-0.225000X0.250000X0.225000X0*%
%ADD24R,1.270000X0.558800*%
%ADD25RoundRect,0.250000X0.325000X1.100000X-0.325000X1.100000X-0.325000X-1.100000X0.325000X-1.100000X0*%
%ADD26RoundRect,0.075000X0.700000X0.075000X-0.700000X0.075000X-0.700000X-0.075000X0.700000X-0.075000X0*%
%ADD27RoundRect,0.075000X0.075000X0.700000X-0.075000X0.700000X-0.075000X-0.700000X0.075000X-0.700000X0*%
%ADD28RoundRect,0.250000X0.255000X-0.255000X0.255000X0.255000X-0.255000X0.255000X-0.255000X-0.255000X0*%
%ADD29RoundRect,0.062500X0.062500X-0.350000X0.062500X0.350000X-0.062500X0.350000X-0.062500X-0.350000X0*%
%ADD30RoundRect,0.062500X0.350000X-0.062500X0.350000X0.062500X-0.350000X0.062500X-0.350000X-0.062500X0*%
%ADD31RoundRect,0.250000X0.325000X0.650000X-0.325000X0.650000X-0.325000X-0.650000X0.325000X-0.650000X0*%
%ADD32R,1.460500X0.558800*%
%ADD33RoundRect,0.150000X-0.150000X-0.425000X0.150000X-0.425000X0.150000X0.425000X-0.150000X0.425000X0*%
%ADD34RoundRect,0.075000X-0.075000X-0.500000X0.075000X-0.500000X0.075000X0.500000X-0.075000X0.500000X0*%
%ADD35O,1.000000X2.100000*%
%ADD36O,1.000000X1.800000*%
%ADD37RoundRect,0.237500X-0.287500X-0.237500X0.287500X-0.237500X0.287500X0.237500X-0.287500X0.237500X0*%
%ADD38R,2.000000X4.500000*%
%ADD39RoundRect,0.250000X1.000000X0.650000X-1.000000X0.650000X-1.000000X-0.650000X1.000000X-0.650000X0*%
%ADD40RoundRect,0.250000X1.100000X-0.325000X1.100000X0.325000X-1.100000X0.325000X-1.100000X-0.325000X0*%
%ADD41RoundRect,0.225000X0.250000X-0.225000X0.250000X0.225000X-0.250000X0.225000X-0.250000X-0.225000X0*%
%ADD42RoundRect,0.218750X-0.218750X-0.256250X0.218750X-0.256250X0.218750X0.256250X-0.218750X0.256250X0*%
%ADD43RoundRect,0.218750X0.218750X0.256250X-0.218750X0.256250X-0.218750X-0.256250X0.218750X-0.256250X0*%
G04 APERTURE END LIST*
D10*
%TO.C,L2*%
X121875000Y-63000000D03*
X120125000Y-63000000D03*
%TD*%
D11*
%TO.C,C4*%
X137225000Y-115750000D03*
X138775000Y-115750000D03*
%TD*%
D12*
%TO.C,R11*%
X175550000Y-109168800D03*
X173900000Y-109168800D03*
%TD*%
D11*
%TO.C,C37*%
X181225000Y-116000000D03*
X182775000Y-116000000D03*
%TD*%
%TO.C,C2*%
X121225000Y-103750000D03*
X122775000Y-103750000D03*
%TD*%
D13*
%TO.C,C53*%
X132275000Y-125000000D03*
X130725000Y-125000000D03*
%TD*%
D14*
%TO.C,R3*%
X126000000Y-95175000D03*
X126000000Y-96825000D03*
%TD*%
D15*
%TO.C,D1*%
X122000000Y-99212500D03*
X122000000Y-100787500D03*
%TD*%
D12*
%TO.C,R7*%
X109825000Y-77000000D03*
X108175000Y-77000000D03*
%TD*%
%TO.C,R8*%
X114825000Y-71000000D03*
X113175000Y-71000000D03*
%TD*%
D16*
%TO.C,R1*%
X122000000Y-96825000D03*
X122000000Y-95175000D03*
%TD*%
D14*
%TO.C,R17*%
X191750000Y-120425000D03*
X191750000Y-122075000D03*
%TD*%
D12*
%TO.C,R25*%
X128925000Y-79925000D03*
X127275000Y-79925000D03*
%TD*%
D11*
%TO.C,C27*%
X131975000Y-80000000D03*
X133525000Y-80000000D03*
%TD*%
D17*
%TO.C,R24*%
X152000000Y-88000000D03*
X157925000Y-88000000D03*
%TD*%
D18*
%TO.C,C48*%
X135000000Y-82525000D03*
X135000000Y-85475000D03*
%TD*%
D12*
%TO.C,R5*%
X104825000Y-77000000D03*
X103175000Y-77000000D03*
%TD*%
%TO.C,R20*%
X133825000Y-77000000D03*
X132175000Y-77000000D03*
%TD*%
D16*
%TO.C,R2*%
X124000000Y-96825000D03*
X124000000Y-95175000D03*
%TD*%
D13*
%TO.C,C39*%
X182775000Y-113500000D03*
X181225000Y-113500000D03*
%TD*%
D19*
%TO.C,R28*%
X163425000Y-107500000D03*
X165075000Y-107500000D03*
%TD*%
%TO.C,R14*%
X190400000Y-109168800D03*
X192050000Y-109168800D03*
%TD*%
D13*
%TO.C,C49*%
X175000000Y-94168800D03*
X173450000Y-94168800D03*
%TD*%
%TO.C,C31*%
X168525000Y-121000000D03*
X166975000Y-121000000D03*
%TD*%
D20*
%TO.C,U7*%
X171761200Y-96263800D03*
X171761200Y-97533800D03*
X171761200Y-98803800D03*
X171761200Y-100073800D03*
X176688800Y-100073800D03*
X176688800Y-98803800D03*
X176688800Y-97533800D03*
X176688800Y-96263800D03*
%TD*%
D13*
%TO.C,C25*%
X122525000Y-71000000D03*
X120975000Y-71000000D03*
%TD*%
D21*
%TO.C,U3*%
X117593200Y-78460000D03*
X117593200Y-79730000D03*
X117593200Y-81000000D03*
X117593200Y-82270000D03*
X117593200Y-83540000D03*
X118796600Y-78460000D03*
X118796600Y-79730000D03*
X118796600Y-81000000D03*
X118796600Y-82270000D03*
X118796600Y-83540000D03*
X120000000Y-78460000D03*
X120000000Y-79730000D03*
X120000000Y-81000000D03*
X120000000Y-82270000D03*
X120000000Y-83540000D03*
D22*
X115046600Y-74250000D03*
X115046600Y-74750000D03*
X115046600Y-75250000D03*
X115046600Y-75750000D03*
X115046600Y-76250000D03*
X115046600Y-76750000D03*
X115046600Y-77250000D03*
X115046600Y-77750000D03*
X115046600Y-78250000D03*
X115046600Y-78750000D03*
X115046600Y-79250000D03*
X115046600Y-79750000D03*
X115046600Y-80250000D03*
X115046600Y-80750000D03*
X115046600Y-81250000D03*
X115046600Y-81750000D03*
X115046600Y-82250000D03*
X115046600Y-82750000D03*
X115046600Y-83250000D03*
X115046600Y-83750000D03*
X115046600Y-84250000D03*
X115046600Y-84750000D03*
X115046600Y-85250000D03*
X115046600Y-85750000D03*
X115046600Y-86250000D03*
X115046600Y-86750000D03*
X115046600Y-87250000D03*
X115046600Y-87750000D03*
X122546600Y-87750000D03*
X122546600Y-87250000D03*
X122546600Y-86750000D03*
X122546600Y-86250000D03*
X122546600Y-85750000D03*
X122546600Y-85250000D03*
X122546600Y-84750000D03*
X122546600Y-84250000D03*
X122546600Y-83750000D03*
X122546600Y-83250000D03*
X122546600Y-82750000D03*
X122546600Y-82250000D03*
X122546600Y-81750000D03*
X122546600Y-81250000D03*
X122546600Y-80750000D03*
X122546600Y-80250000D03*
X122546600Y-79750000D03*
X122546600Y-79250000D03*
X122546600Y-78750000D03*
X122546600Y-78250000D03*
X122546600Y-77750000D03*
X122546600Y-77250000D03*
X122546600Y-76750000D03*
X122546600Y-76250000D03*
X122546600Y-75750000D03*
X122546600Y-75250000D03*
X122546600Y-74750000D03*
X122546600Y-74250000D03*
%TD*%
D23*
%TO.C,C16*%
X110000000Y-88225000D03*
X110000000Y-89775000D03*
%TD*%
D17*
%TO.C,R18*%
X152037500Y-74000000D03*
X157962500Y-74000000D03*
%TD*%
D24*
%TO.C,U2*%
X117719200Y-58452500D03*
X117719200Y-57500000D03*
X117719200Y-56547500D03*
X115280800Y-56547500D03*
X115280800Y-58452500D03*
%TD*%
D20*
%TO.C,U6*%
X181297400Y-96263800D03*
X181297400Y-97533800D03*
X181297400Y-98803800D03*
X181297400Y-100073800D03*
X186225000Y-100073800D03*
X186225000Y-98803800D03*
X186225000Y-97533800D03*
X186225000Y-96263800D03*
%TD*%
D25*
%TO.C,C12*%
X117700000Y-53250000D03*
X114750000Y-53250000D03*
%TD*%
D26*
%TO.C,U1*%
X133675000Y-114750000D03*
X133675000Y-114250000D03*
X133675000Y-113750000D03*
X133675000Y-113250000D03*
X133675000Y-112750000D03*
X133675000Y-112250000D03*
X133675000Y-111750000D03*
X133675000Y-111250000D03*
X133675000Y-110750000D03*
X133675000Y-110250000D03*
X133675000Y-109750000D03*
X133675000Y-109250000D03*
X133675000Y-108750000D03*
X133675000Y-108250000D03*
X133675000Y-107750000D03*
X133675000Y-107250000D03*
D27*
X131750000Y-105325000D03*
X131250000Y-105325000D03*
X130750000Y-105325000D03*
X130250000Y-105325000D03*
X129750000Y-105325000D03*
X129250000Y-105325000D03*
X128750000Y-105325000D03*
X128250000Y-105325000D03*
X127750000Y-105325000D03*
X127250000Y-105325000D03*
X126750000Y-105325000D03*
X126250000Y-105325000D03*
X125750000Y-105325000D03*
X125250000Y-105325000D03*
X124750000Y-105325000D03*
X124250000Y-105325000D03*
D26*
X122325000Y-107250000D03*
X122325000Y-107750000D03*
X122325000Y-108250000D03*
X122325000Y-108750000D03*
X122325000Y-109250000D03*
X122325000Y-109750000D03*
X122325000Y-110250000D03*
X122325000Y-110750000D03*
X122325000Y-111250000D03*
X122325000Y-111750000D03*
X122325000Y-112250000D03*
X122325000Y-112750000D03*
X122325000Y-113250000D03*
X122325000Y-113750000D03*
X122325000Y-114250000D03*
X122325000Y-114750000D03*
D27*
X124250000Y-116675000D03*
X124750000Y-116675000D03*
X125250000Y-116675000D03*
X125750000Y-116675000D03*
X126250000Y-116675000D03*
X126750000Y-116675000D03*
X127250000Y-116675000D03*
X127750000Y-116675000D03*
X128250000Y-116675000D03*
X128750000Y-116675000D03*
X129250000Y-116675000D03*
X129750000Y-116675000D03*
X130250000Y-116675000D03*
X130750000Y-116675000D03*
X131250000Y-116675000D03*
X131750000Y-116675000D03*
%TD*%
D12*
%TO.C,R23*%
X175550000Y-104168800D03*
X173900000Y-104168800D03*
%TD*%
D11*
%TO.C,C3*%
X114425000Y-115000000D03*
X115975000Y-115000000D03*
%TD*%
D16*
%TO.C,R35*%
X122000000Y-124825000D03*
X122000000Y-123175000D03*
%TD*%
D19*
%TO.C,R4*%
X103175000Y-79500000D03*
X104825000Y-79500000D03*
%TD*%
D11*
%TO.C,C33*%
X166975000Y-122750000D03*
X168525000Y-122750000D03*
%TD*%
D28*
%TO.C,U4*%
X172625000Y-121375000D03*
X173875000Y-121375000D03*
X172625000Y-120125000D03*
X173875000Y-120125000D03*
D29*
X172250000Y-122687500D03*
X172750000Y-122687500D03*
X173250000Y-122687500D03*
X173750000Y-122687500D03*
X174250000Y-122687500D03*
D30*
X175187500Y-121750000D03*
X175187500Y-121250000D03*
X175187500Y-120750000D03*
X175187500Y-120250000D03*
X175187500Y-119750000D03*
D29*
X174250000Y-118812500D03*
X173750000Y-118812500D03*
X173250000Y-118812500D03*
X172750000Y-118812500D03*
X172250000Y-118812500D03*
D30*
X171312500Y-119750000D03*
X171312500Y-120250000D03*
X171312500Y-120750000D03*
X171312500Y-121250000D03*
X171312500Y-121750000D03*
%TD*%
D10*
%TO.C,L4*%
X178625000Y-113500000D03*
X176875000Y-113500000D03*
%TD*%
D11*
%TO.C,C32*%
X177975000Y-122625000D03*
X179525000Y-122625000D03*
%TD*%
D14*
%TO.C,R30*%
X113750000Y-96000000D03*
X113750000Y-97650000D03*
%TD*%
D13*
%TO.C,C46*%
X184562050Y-93953800D03*
X183012050Y-93953800D03*
%TD*%
D11*
%TO.C,C34*%
X171600000Y-113000000D03*
X173150000Y-113000000D03*
%TD*%
D14*
%TO.C,R19*%
X131000000Y-69175000D03*
X131000000Y-70825000D03*
%TD*%
D31*
%TO.C,C30*%
X115225000Y-61250000D03*
X112275000Y-61250000D03*
%TD*%
D13*
%TO.C,C29*%
X114775000Y-67750000D03*
X113225000Y-67750000D03*
%TD*%
D32*
%TO.C,Q6*%
X142275850Y-106905000D03*
X147724150Y-103095000D03*
X147724150Y-104365000D03*
X147724150Y-105635000D03*
X147724150Y-106905000D03*
X142275850Y-103095000D03*
X142275850Y-104365000D03*
X142275850Y-105635000D03*
%TD*%
D14*
%TO.C,R38*%
X148000000Y-119425000D03*
X148000000Y-121075000D03*
%TD*%
D13*
%TO.C,C35*%
X195525000Y-119250000D03*
X193975000Y-119250000D03*
%TD*%
D14*
%TO.C,R42*%
X145000000Y-119425000D03*
X145000000Y-121075000D03*
%TD*%
D33*
%TO.C,J6*%
X138800000Y-124570000D03*
X139600000Y-124570000D03*
D34*
X140750000Y-124570000D03*
X141750000Y-124570000D03*
X142250000Y-124570000D03*
X143250000Y-124570000D03*
D33*
X144400000Y-124570000D03*
X145200000Y-124570000D03*
X145200000Y-124570000D03*
X144400000Y-124570000D03*
D34*
X143750000Y-124570000D03*
X142750000Y-124570000D03*
X141250000Y-124570000D03*
X140250000Y-124570000D03*
D33*
X139600000Y-124570000D03*
X138800000Y-124570000D03*
D35*
X137680000Y-125145000D03*
D36*
X137680000Y-129325000D03*
D35*
X146320000Y-125145000D03*
D36*
X146320000Y-129325000D03*
%TD*%
D37*
%TO.C,L3*%
X172875000Y-116000000D03*
X174625000Y-116000000D03*
%TD*%
D18*
%TO.C,C42*%
X135000000Y-69525000D03*
X135000000Y-72475000D03*
%TD*%
D23*
%TO.C,C9*%
X119500000Y-115975000D03*
X119500000Y-117525000D03*
%TD*%
D12*
%TO.C,R32*%
X128825000Y-84400000D03*
X127175000Y-84400000D03*
%TD*%
D11*
%TO.C,C38*%
X181225000Y-118000000D03*
X182775000Y-118000000D03*
%TD*%
D13*
%TO.C,C7*%
X163775000Y-111000000D03*
X162225000Y-111000000D03*
%TD*%
D14*
%TO.C,R29*%
X111500000Y-96000000D03*
X111500000Y-97650000D03*
%TD*%
D15*
%TO.C,D3*%
X126000000Y-99212500D03*
X126000000Y-100787500D03*
%TD*%
D38*
%TO.C,X1*%
X158000000Y-109750000D03*
X158000000Y-118250000D03*
%TD*%
D10*
%TO.C,L5*%
X178625000Y-116000000D03*
X176875000Y-116000000D03*
%TD*%
D20*
%TO.C,U5*%
X190761200Y-96263800D03*
X190761200Y-97533800D03*
X190761200Y-98803800D03*
X190761200Y-100073800D03*
X195688800Y-100073800D03*
X195688800Y-98803800D03*
X195688800Y-97533800D03*
X195688800Y-96263800D03*
%TD*%
D32*
%TO.C,Q4*%
X142275850Y-92905000D03*
X147724150Y-89095000D03*
X147724150Y-90365000D03*
X147724150Y-91635000D03*
X147724150Y-92905000D03*
X142275850Y-89095000D03*
X142275850Y-90365000D03*
X142275850Y-91635000D03*
%TD*%
D39*
%TO.C,D4*%
X115500000Y-64750000D03*
X111500000Y-64750000D03*
%TD*%
D19*
%TO.C,R12*%
X170400000Y-109168800D03*
X172050000Y-109168800D03*
%TD*%
D12*
%TO.C,R43*%
X151825000Y-127250000D03*
X150175000Y-127250000D03*
%TD*%
D11*
%TO.C,C40*%
X186475000Y-113000000D03*
X188025000Y-113000000D03*
%TD*%
D13*
%TO.C,C13*%
X109775000Y-80000000D03*
X108225000Y-80000000D03*
%TD*%
D40*
%TO.C,C28*%
X127000000Y-71725000D03*
X127000000Y-68775000D03*
%TD*%
D17*
%TO.C,R31*%
X152037500Y-102000000D03*
X157962500Y-102000000D03*
%TD*%
D13*
%TO.C,C43*%
X192000000Y-104168800D03*
X190450000Y-104168800D03*
%TD*%
D19*
%TO.C,R13*%
X110675000Y-124000000D03*
X112325000Y-124000000D03*
%TD*%
D23*
%TO.C,C6*%
X114750000Y-106475000D03*
X114750000Y-108025000D03*
%TD*%
D13*
%TO.C,C44*%
X182725000Y-104168800D03*
X181175000Y-104168800D03*
%TD*%
D19*
%TO.C,R39*%
X137175000Y-122250000D03*
X138825000Y-122250000D03*
%TD*%
D41*
%TO.C,C11*%
X129000000Y-100775000D03*
X129000000Y-99225000D03*
%TD*%
D13*
%TO.C,C36*%
X195525000Y-123250000D03*
X193975000Y-123250000D03*
%TD*%
D32*
%TO.C,Q2*%
X142275850Y-78905000D03*
X147724150Y-75095000D03*
X147724150Y-76365000D03*
X147724150Y-77635000D03*
X147724150Y-78905000D03*
X142275850Y-75095000D03*
X142275850Y-76365000D03*
X142275850Y-77635000D03*
%TD*%
D11*
%TO.C,C23*%
X127225000Y-77000000D03*
X128775000Y-77000000D03*
%TD*%
%TO.C,C20*%
X110475000Y-53750000D03*
X112025000Y-53750000D03*
%TD*%
D19*
%TO.C,R41*%
X137175000Y-120250000D03*
X138825000Y-120250000D03*
%TD*%
D12*
%TO.C,R9*%
X195550000Y-109168800D03*
X193900000Y-109168800D03*
%TD*%
%TO.C,R22*%
X186050000Y-104168800D03*
X184400000Y-104168800D03*
%TD*%
D11*
%TO.C,C17*%
X108225000Y-74000000D03*
X109775000Y-74000000D03*
%TD*%
D12*
%TO.C,R33*%
X128825000Y-89050000D03*
X127175000Y-89050000D03*
%TD*%
%TO.C,R26*%
X128825000Y-82000000D03*
X127175000Y-82000000D03*
%TD*%
D19*
%TO.C,R6*%
X108175000Y-71000000D03*
X109825000Y-71000000D03*
%TD*%
D18*
%TO.C,C52*%
X134800000Y-97325000D03*
X134800000Y-100275000D03*
%TD*%
D32*
%TO.C,Q1*%
X147724150Y-69095000D03*
X142275850Y-72905000D03*
X142275850Y-71635000D03*
X142275850Y-70365000D03*
X142275850Y-69095000D03*
X147724150Y-72905000D03*
X147724150Y-71635000D03*
X147724150Y-70365000D03*
%TD*%
D12*
%TO.C,R37*%
X132325000Y-123000000D03*
X130675000Y-123000000D03*
%TD*%
D15*
%TO.C,D2*%
X124000000Y-99212500D03*
X124000000Y-100787500D03*
%TD*%
D42*
%TO.C,D5*%
X106712500Y-124000000D03*
X108287500Y-124000000D03*
%TD*%
D43*
%TO.C,L1*%
X111787500Y-58500000D03*
X110212500Y-58500000D03*
%TD*%
D32*
%TO.C,Q5*%
X147724150Y-97095000D03*
X142275850Y-100905000D03*
X142275850Y-99635000D03*
X142275850Y-98365000D03*
X142275850Y-97095000D03*
X147724150Y-100905000D03*
X147724150Y-99635000D03*
X147724150Y-98365000D03*
%TD*%
D11*
%TO.C,C15*%
X103225000Y-71000000D03*
X104775000Y-71000000D03*
%TD*%
D19*
%TO.C,R40*%
X137175000Y-118250000D03*
X138825000Y-118250000D03*
%TD*%
%TO.C,R15*%
X181100000Y-109168800D03*
X182750000Y-109168800D03*
%TD*%
D16*
%TO.C,R36*%
X119000000Y-124825000D03*
X119000000Y-123175000D03*
%TD*%
D11*
%TO.C,C19*%
X108225000Y-83000000D03*
X109775000Y-83000000D03*
%TD*%
D25*
%TO.C,C22*%
X125475000Y-92000000D03*
X122525000Y-92000000D03*
%TD*%
D13*
%TO.C,C1*%
X163775000Y-117000000D03*
X162225000Y-117000000D03*
%TD*%
%TO.C,C45*%
X172000000Y-104168800D03*
X170450000Y-104168800D03*
%TD*%
D23*
%TO.C,C18*%
X112000000Y-88225000D03*
X112000000Y-89775000D03*
%TD*%
D11*
%TO.C,C47*%
X163475000Y-105500000D03*
X165025000Y-105500000D03*
%TD*%
%TO.C,C5*%
X138725000Y-110250000D03*
X140275000Y-110250000D03*
%TD*%
D13*
%TO.C,C41*%
X194000000Y-94168800D03*
X192450000Y-94168800D03*
%TD*%
%TO.C,C26*%
X121775000Y-67000000D03*
X120225000Y-67000000D03*
%TD*%
D19*
%TO.C,R16*%
X167050000Y-116125000D03*
X168700000Y-116125000D03*
%TD*%
D11*
%TO.C,C8*%
X137225000Y-114000000D03*
X138775000Y-114000000D03*
%TD*%
D32*
%TO.C,Q3*%
X147724150Y-83095000D03*
X142275850Y-86905000D03*
X142275850Y-85635000D03*
X142275850Y-84365000D03*
X142275850Y-83095000D03*
X147724150Y-86905000D03*
X147724150Y-85635000D03*
X147724150Y-84365000D03*
%TD*%
D38*
%TO.C,X2*%
X187500000Y-125500000D03*
X187500000Y-117000000D03*
%TD*%
D16*
%TO.C,R34*%
X125000000Y-124825000D03*
X125000000Y-123175000D03*
%TD*%
D12*
%TO.C,R27*%
X165075000Y-103500000D03*
X163425000Y-103500000D03*
%TD*%
%TO.C,R21*%
X195550000Y-104168800D03*
X193900000Y-104168800D03*
%TD*%
D23*
%TO.C,C10*%
X132250000Y-119225000D03*
X132250000Y-120775000D03*
%TD*%
D12*
%TO.C,R10*%
X186050000Y-109168800D03*
X184400000Y-109168800D03*
%TD*%
D31*
%TO.C,C21*%
X106725000Y-56500000D03*
X103775000Y-56500000D03*
%TD*%
D11*
%TO.C,C24*%
X127225000Y-86000000D03*
X128775000Y-86000000D03*
%TD*%
M02*
