%TF.GenerationSoftware,KiCad,Pcbnew,8.0.2*%
%TF.CreationDate,2024-10-17T17:48:59-03:00*%
%TF.ProjectId,ESCX,45534358-2e6b-4696-9361-645f70636258,rev?*%
%TF.SameCoordinates,Original*%
%TF.FileFunction,Soldermask,Bot*%
%TF.FilePolarity,Negative*%
%FSLAX46Y46*%
G04 Gerber Fmt 4.6, Leading zero omitted, Abs format (unit mm)*
G04 Created by KiCad (PCBNEW 8.0.2) date 2024-10-17 17:48:59*
%MOMM*%
%LPD*%
G01*
G04 APERTURE LIST*
G04 Aperture macros list*
%AMRoundRect*
0 Rectangle with rounded corners*
0 $1 Rounding radius*
0 $2 $3 $4 $5 $6 $7 $8 $9 X,Y pos of 4 corners*
0 Add a 4 corners polygon primitive as box body*
4,1,4,$2,$3,$4,$5,$6,$7,$8,$9,$2,$3,0*
0 Add four circle primitives for the rounded corners*
1,1,$1+$1,$2,$3*
1,1,$1+$1,$4,$5*
1,1,$1+$1,$6,$7*
1,1,$1+$1,$8,$9*
0 Add four rect primitives between the rounded corners*
20,1,$1+$1,$2,$3,$4,$5,0*
20,1,$1+$1,$4,$5,$6,$7,0*
20,1,$1+$1,$6,$7,$8,$9,0*
20,1,$1+$1,$8,$9,$2,$3,0*%
G04 Aperture macros list end*
%ADD10R,2.600000X2.600000*%
%ADD11C,2.600000*%
%ADD12C,2.700000*%
%ADD13C,2.050000*%
%ADD14C,2.250000*%
%ADD15C,2.000000*%
%ADD16R,3.610000X6.350000*%
%ADD17C,1.200000*%
%ADD18RoundRect,0.250000X-0.600000X-0.725000X0.600000X-0.725000X0.600000X0.725000X-0.600000X0.725000X0*%
%ADD19O,1.700000X1.950000*%
%ADD20R,1.700000X1.700000*%
%ADD21O,1.700000X1.700000*%
%ADD22C,0.650000*%
%ADD23O,1.000000X2.100000*%
%ADD24O,1.000000X1.800000*%
%ADD25C,4.000000*%
G04 APERTURE END LIST*
D10*
%TO.C,J4*%
X192000000Y-85080000D03*
D11*
X192000000Y-80000000D03*
X192000000Y-74920000D03*
%TD*%
D12*
%TO.C,H1*%
X104000000Y-49000000D03*
%TD*%
D13*
%TO.C,J2*%
X161000000Y-127400000D03*
D14*
X163540000Y-129940000D03*
X163540000Y-124860000D03*
X158460000Y-129940000D03*
X158460000Y-124860000D03*
%TD*%
D10*
%TO.C,J3*%
X180545000Y-50695000D03*
D11*
X175465000Y-50695000D03*
%TD*%
D15*
%TO.C,C50*%
X138000000Y-51250000D03*
X138000000Y-58750000D03*
%TD*%
D16*
%TO.C,U3*%
X118796600Y-81000000D03*
%TD*%
D12*
%TO.C,H3*%
X194000000Y-129000000D03*
%TD*%
D17*
%TO.C,J5*%
X114900000Y-131000000D03*
D18*
X116500000Y-129000000D03*
D19*
X119000000Y-129000000D03*
X121500000Y-129000000D03*
X124000000Y-129000000D03*
X126500000Y-129000000D03*
X129000000Y-129000000D03*
%TD*%
D20*
%TO.C,J7*%
X103000000Y-115920000D03*
D21*
X103000000Y-118460000D03*
X103000000Y-121000000D03*
%TD*%
D12*
%TO.C,H4*%
X194000000Y-49000000D03*
%TD*%
D22*
%TO.C,J6*%
X139110000Y-125645000D03*
X144890000Y-125645000D03*
D23*
X137680000Y-125145000D03*
D24*
X137680000Y-129325000D03*
D23*
X146320000Y-125145000D03*
D24*
X146320000Y-129325000D03*
%TD*%
D12*
%TO.C,H2*%
X104000000Y-129000000D03*
%TD*%
D20*
%TO.C,J1*%
X103000000Y-109080000D03*
D21*
X103000000Y-106540000D03*
X103000000Y-104000000D03*
X103000000Y-101460000D03*
X103000000Y-98920000D03*
%TD*%
D15*
%TO.C,C51*%
X157000000Y-51250000D03*
X157000000Y-58750000D03*
%TD*%
D25*
%TO.C,TP2*%
X193000000Y-64000000D03*
%TD*%
%TO.C,TP1*%
X193000000Y-58000000D03*
%TD*%
%TO.C,TP3*%
X193000000Y-71000000D03*
%TD*%
M02*
